<svg xmlns="http://www.w3.org/2000/svg" data-name="Layer 1" viewBox="0 0 512 512"><path fill="#6b2de2" d="M349.76,345.92c2.6,6.25,4.68,13.02,4.68,20.31a48.9,48.9,0,0,1-48.96,48.96,49.554,49.554,0,0,1-8.13-.67,48.9,48.9,0,0,1-40.83-48.29c0-.46.01-.91.02-1.36a44.505,44.505,0,0,1,4.67-18.95l-.02-.09a48.922,48.922,0,0,0,39.1-34.22,49.421,49.421,0,0,0,46.86,34.31c.88,0,1.75-.02,2.61-.07Z"/><path fill="#5928d1" d="M353.55 248.61c24.15 3.4 42.56 23.58 42.56 48.35a48.9 48.9 0 0 1-46.35 48.89c-.86.05-1.73.07-2.61.07a49.421 49.421 0 0 1-46.86-34.31 48.778 48.778 0 0 0 2.07-14.13 47.27 47.27 0 0 0-2.15-14.06h.06a48.957 48.957 0 0 1 4.21-10.09l.02-.19a50.554 50.554 0 0 0 6.19.38 48.92 48.92 0 0 0 42.7-25zM297.15 415.72a52.037 52.037 0 0 1 5.21 21.87 48.965 48.965 0 0 1-97.93 0 45.732 45.732 0 0 1 6.25-23.96l-.07-1.02a48.888 48.888 0 0 0 45.77-47.74h.16c-.01.45-.02.9-.02 1.36a48.9 48.9 0 0 0 40.83 48.29z"/><path fill="#6b2de2" d="M253.13,346.59a52.874,52.874,0,0,1,3.27,17.16c0,.37,0,.75-.02,1.12a48.888,48.888,0,0,1-45.77,47.74c-1.05.07-2.1.1-3.17.1a48.9,48.9,0,0,1-48.96-48.96A54.674,54.674,0,0,1,162.12,345v-.07c.9.04,1.81.07,2.73.07a48.815,48.815,0,0,0,43.75-27.61l.03-.01a48.928,48.928,0,0,0,44.5,29.06Z"/><path fill="#5928d1" d="M163.05,247.09a48.926,48.926,0,0,0,43.47,26.43q1.965,0,3.9-.15l.01.15a54.712,54.712,0,0,0-6,23.96,48.9,48.9,0,0,0,4.2,19.9l-.03.01A48.815,48.815,0,0,1,164.85,345c-.92,0-1.83-.03-2.73-.07a48.915,48.915,0,0,1-46.23-48.89C115.89,269.56,137.11,248.25,163.05,247.09Z"/><path fill="#114368" d="M261.727,257.492a8,8,0,0,1-7.653-5.682l-.07-.23c-.011-.037-.022-.073-.032-.109l-2.011-6.99c-.023-.082-.045-.164-.066-.247a154.461,154.461,0,0,1-4.073-24.018c-2.194-24.627,1.651-48.916,10.548-66.644a8,8,0,1,1,14.3,7.177c-7.6,15.144-10.848,36.3-8.912,58.041a138.481,138.481,0,0,0,3.616,21.394l2.012,6.986a8.006,8.006,0,0,1-7.659,10.322Z"/><path fill="#6b2de2" d="M300.21,283.42a47.27,47.27,0,0,1,2.15,14.06,48.917,48.917,0,0,1-41.17,48.35,50.034,50.034,0,0,1-7.79.61h-.27a48.884,48.884,0,0,1-48.7-48.96,54.712,54.712,0,0,1,6-23.96l-.01-.15a48.969,48.969,0,0,0,38.8-24.85h4.18a45.638,45.638,0,0,1,8.26.74,42.236,42.236,0,0,1,8.18,2.3,49.113,49.113,0,0,0,24.74,19.25l-.04.11A57.177,57.177,0,0,1,300.21,283.42Z"/><path fill="#5928d1" d="M310.69,175.6a48.96,48.96,0,1,1,0,97.92,50.554,50.554,0,0,1-6.19-.38,48.913,48.913,0,0,1-34.66-21.58,48.969,48.969,0,0,1,40.85-75.96Z"/><path fill="#6b2de2" d="M255.23,219.55c.16,1.65.25,3.32.25,5.01a48.959,48.959,0,0,1-45.06,48.81q-1.935.15-3.9.15a48.96,48.96,0,1,1,48.71-53.97Z"/><path fill="#46c43d" d="M156.05 47.77c60.13 0 109.33 49.19 109.33 109.32A109.22 109.22 0 0 1 156.05 47.77zM267.96 132.58c0-51.86 37.1-98.01 89.87-107.13 10.96 59.48-28.56 116.08-88.04 127.04A110 110 0 0 1 267.96 132.58z"/></svg>